<svg id="Layer_2" data-name="Layer 2" xmlns="http://www.w3.org/2000/svg" viewBox="0 0 64 64"><defs><style>.cls-1{fill:#c96fa1;}.cls-2{fill:#fbefd1;}.cls-3{fill:#846d9b;}.cls-4{fill:#fff;}</style></defs><title>congrats</title><path class="cls-1" d="M13.86,60.13A6,6,0,0,1,12.61,60l.5-2.39a2.22,2.22,0,0,0,2.46-.71,2.24,2.24,0,0,0-.69-2.48l-.12-.15a4.54,4.54,0,0,1-1-5.32A4.57,4.57,0,0,1,18.84,47l-.5,2.39a2.23,2.23,0,0,0-2.45.71,2.23,2.23,0,0,0,.68,2.49l.12.14a4.54,4.54,0,0,1,1,5.33A4.23,4.23,0,0,1,13.86,60.13Z"/><path class="cls-1" d="M24.08,14.85a6,6,0,0,1-1.25-.13l.5-2.39a2.23,2.23,0,0,0,2.46-.71,2.26,2.26,0,0,0-.69-2.49L25,9a4.55,4.55,0,0,1-1-5.33,4.57,4.57,0,0,1,5.08-1.91l-.5,2.39a2.23,2.23,0,0,0-2.45.71,2.23,2.23,0,0,0,.68,2.49l.12.14a4.54,4.54,0,0,1,1,5.33A4.23,4.23,0,0,1,24.08,14.85Z"/><path class="cls-1" d="M53,56.82l-.52-2.38c1.09-.25,1.87-.91,1.94-1.66s-.59-1.56-1.64-2l-.17-.08a4.56,4.56,0,0,1-3.11-4.44,4.56,4.56,0,0,1,3.85-3.82l.53,2.38c-1.1.24-1.88.91-1.94,1.66s.59,1.55,1.64,2l.17.08A4.54,4.54,0,0,1,56.85,53,4.54,4.54,0,0,1,53,56.82Z"/><circle class="cls-2" cx="32.2" cy="31.88" r="25.86"/><path class="cls-3" d="M17.05,29.43l-2.26-.93A5.54,5.54,0,0,1,25,28.45l-2.24.95a3.1,3.1,0,0,0-5.73,0Z"/><path class="cls-3" d="M41.5,29.43l-2.26-.93a5.54,5.54,0,0,1,10.23-.05l-2.24.95a3.1,3.1,0,0,0-5.73,0Z"/><polyline class="cls-1" points="9.8 18.96 7.14 6.67 19.43 9.33"/><path class="cls-1" d="M50.41,42.87a5.51,5.51,0,0,1-1.06-.1L32,39.49l.46-2.39L49.8,40.37a3.17,3.17,0,0,0,2.4-.5,3.13,3.13,0,0,0,1.34-2,3.18,3.18,0,0,0-.5-2.4,3.13,3.13,0,0,0-2-1.34,3.2,3.2,0,0,0-3.74,2.55,3.09,3.09,0,0,0,0,1L44.81,38a5.75,5.75,0,0,1,0-1.85,5.64,5.64,0,1,1,8.73,5.7A5.6,5.6,0,0,1,50.41,42.87Z"/><path class="cls-3" d="M35.68,41.49a4,4,0,0,0-1.42-3,4,4,0,0,0,1.42-3,4.55,4.55,0,0,0-3.49-4.15l-.74,2.33c1.07.34,1.79,1.07,1.79,1.82s-.73,1.5-1.81,1.83h0v2.34h0c1.09.33,1.82,1.07,1.82,1.83s-.72,1.48-1.79,1.82l.74,2.33A4.56,4.56,0,0,0,35.68,41.49Z"/><rect class="cls-4" x="43.34" y="4.94" width="2.21" height="2.21" transform="translate(-0.06 11.66) rotate(-14.93)"/><rect class="cls-4" x="5.43" y="18.58" width="1.84" height="1.84" transform="translate(-4.81 2.3) rotate(-14.93)"/><rect class="cls-4" x="54.46" y="5.09" width="1.84" height="1.84" transform="translate(0.32 14.48) rotate(-14.93)"/><rect class="cls-4" x="54.38" y="12.89" width="2" height="2" transform="translate(10.36 -21.23) rotate(23.88)"/><rect class="cls-4" x="30.42" y="58.7" width="2" height="2" transform="translate(26.86 -7.61) rotate(23.88)"/><rect class="cls-4" x="16.44" y="3.94" width="2.36" height="2.36" transform="translate(3.58 -6.69) rotate(23.88)"/><rect class="cls-4" x="47.82" y="54.27" width="2.47" height="2.47" transform="translate(77.64 -12.84) rotate(64.17)"/><rect class="cls-4" x="10.61" y="54.18" width="2.46" height="2.46" transform="translate(56.55 20.61) rotate(64.17)"/><rect class="cls-4" x="7.58" y="48.74" width="1.96" height="1.96" transform="translate(-35.76 25.62) rotate(-51.69)"/><rect class="cls-4" x="59.34" y="27.18" width="1.96" height="1.96" transform="translate(0.83 58.04) rotate(-51.69)"/><rect class="cls-4" x="55.54" y="44.66" width="1.96" height="1.96" transform="translate(-14.33 61.7) rotate(-51.69)"/><path class="cls-1" d="M7.28,40.16a4.24,4.24,0,0,1-3.83-2,4.53,4.53,0,0,1,1-5.32l.12-.14a2.24,2.24,0,0,0,.68-2.49,2.22,2.22,0,0,0-2.45-.71l-.5-2.39A4.55,4.55,0,0,1,7.38,29a4.56,4.56,0,0,1-1,5.33l-.12.14a2.24,2.24,0,0,0-.69,2.49A2.25,2.25,0,0,0,8,37.64L8.52,40A5.94,5.94,0,0,1,7.28,40.16Z"/><path class="cls-1" d="M53.62,18a4.26,4.26,0,0,1-3.83-2,4.54,4.54,0,0,1,1-5.33l.12-.14A2.24,2.24,0,0,0,51.59,8a2.23,2.23,0,0,0-2.45-.71l-.5-2.39a4.58,4.58,0,0,1,5.08,1.9,4.54,4.54,0,0,1-1,5.33l-.11.14a2.24,2.24,0,0,0-.69,2.49,2.23,2.23,0,0,0,2.46.71l.49,2.39A5.94,5.94,0,0,1,53.62,18Z"/><path class="cls-1" d="M41.25,62.37a4.24,4.24,0,0,1-3.83-2,4.53,4.53,0,0,1,1-5.32l.12-.14a2.24,2.24,0,0,0,.68-2.49,2.21,2.21,0,0,0-2.45-.71l-.5-2.39a4.21,4.21,0,0,1,4.08,7.23l-.12.14a2.25,2.25,0,0,0-.69,2.49,2.25,2.25,0,0,0,2.46.71l.5,2.39A6,6,0,0,1,41.25,62.37Z"/></svg>