<svg id="Layer_2" data-name="Layer 2" xmlns="http://www.w3.org/2000/svg" viewBox="0 0 64 64"><defs><style>.cls-1{fill:#fbefd1;}.cls-2{fill:#846d9b;}.cls-3{fill:#c96fa1;}</style></defs><title>cute hearts</title><circle class="cls-1" cx="32.98" cy="31.03" r="27.29"/><polygon class="cls-2" points="32.98 41.45 26.65 35.12 28.47 33.3 32.98 37.81 37.49 33.3 39.31 35.12 32.98 41.45"/><path class="cls-2" d="M17,28.45l-2.38-1a5.85,5.85,0,0,1,10.79,0l-2.37,1a3.27,3.27,0,0,0-6,0Z"/><path class="cls-2" d="M42.79,28.45l-2.38-1a5.85,5.85,0,0,1,10.8,0l-2.37,1a3.28,3.28,0,0,0-6.05,0Z"/><path class="cls-3" d="M59,8.24a4.14,4.14,0,0,0-4.85,1.53,4.13,4.13,0,0,0-7.28,3.79,4.19,4.19,0,0,0,.77,1.27h0l.06.06a1.29,1.29,0,0,0,.17.16l6.29,6.18h0l6.29-6.18c0-.05.11-.1.16-.16l.07-.06h0a4.19,4.19,0,0,0,.77-1.27A4.13,4.13,0,0,0,59,8.24Z"/><path class="cls-3" d="M54.68,47.25a4.14,4.14,0,0,0-4.85,1.53,4.13,4.13,0,0,0-7.28,3.79,3.92,3.92,0,0,0,.78,1.27h0l.07.06c0,.06.11.11.16.16l6.29,6.18h0l6.3-6.18s.11-.1.16-.16l.06-.06h0a4.07,4.07,0,0,0,.77-1.27A4.13,4.13,0,0,0,54.68,47.25Z"/><path class="cls-3" d="M14.69,35.19a4.13,4.13,0,0,0-4.85,1.54,4.13,4.13,0,0,0-7.28,3.78,4,4,0,0,0,.77,1.27h0l.07.06.16.16,6.29,6.18h0L16.13,42a1.29,1.29,0,0,0,.17-.16l.06-.06h0a4,4,0,0,0,.77-1.27A4.13,4.13,0,0,0,14.69,35.19Z"/></svg>