<svg id="Layer_2" data-name="Layer 2" xmlns="http://www.w3.org/2000/svg" viewBox="0 0 64 64"><defs><style>.cls-1{fill:#fbefd1;}.cls-2{fill:#846d9b;}.cls-3{fill:#c96fa1;opacity:0.5;}</style></defs><title>happy</title><circle class="cls-1" cx="32" cy="32" r="29.7"/><polygon class="cls-2" points="32 43.34 25.11 36.45 27.09 34.47 32 39.37 36.91 34.47 38.89 36.45 32 43.34"/><path class="cls-2" d="M14.61,29.19,12,28.12a6.37,6.37,0,0,1,11.75-.06l-2.58,1.1a3.56,3.56,0,0,0-6.57,0Z"/><path class="cls-2" d="M42.68,29.19l-2.59-1.07a6.37,6.37,0,0,1,11.75-.06l-2.58,1.1a3.56,3.56,0,0,0-6.58,0Z"/><ellipse class="cls-3" cx="47.41" cy="35.15" rx="6.28" ry="4.7"/><ellipse class="cls-3" cx="16.59" cy="35.15" rx="6.28" ry="4.7"/></svg>