<svg id="Layer_2" data-name="Layer 2" xmlns="http://www.w3.org/2000/svg" viewBox="0 0 64 64"><defs><style>.cls-1{fill:#fbefd1;}.cls-2{fill:#846d9b;}.cls-3{fill:#c96fa1;}</style></defs><title>heart kiss</title><circle class="cls-1" cx="32" cy="32" r="29.7"/><path class="cls-2" d="M14.61,29.19,12,28.12a6.37,6.37,0,0,1,11.75-.06l-2.58,1.1a3.56,3.56,0,0,0-6.57,0Z"/><path class="cls-2" d="M42.68,29.19l-2.59-1.07a6.37,6.37,0,0,1,11.75-.06l-2.58,1.1a3.56,3.56,0,0,0-6.58,0Z"/><path class="cls-3" d="M52.72,34.42a4.5,4.5,0,0,0-5.27,1.67,4.5,4.5,0,1,0-7.09,5.51h0l.07.07.18.18,6.84,6.72h0l6.84-6.72.18-.18.07-.07h0a4.48,4.48,0,0,0-1.81-7.18Z"/><path class="cls-2" d="M36,43a4.59,4.59,0,0,0-1.64-3.45A4.58,4.58,0,0,0,36,36.15c0-2.12-1.57-4-4-4.76l-.85,2.67c1.23.39,2.06,1.23,2.06,2.09s-.84,1.72-2.09,2.1h0v2.68h0c1.25.39,2.09,1.23,2.09,2.11s-.83,1.7-2.06,2.09L32,47.8C34.43,47,36,45.16,36,43Z"/></svg>