<svg id="Layer_2" data-name="Layer 2" xmlns="http://www.w3.org/2000/svg" viewBox="0 0 64 64"><defs><style>.cls-1{fill:#d0e8fe;}.cls-2{fill:#846d9b;}</style></defs><title>sad</title><circle class="cls-1" cx="32" cy="32" r="29.7"/><circle class="cls-2" cx="17.86" cy="27.44" r="6.28"/><circle class="cls-2" cx="45.79" cy="27.44" r="6.28"/><path class="cls-2" d="M52.51,37.58h0l0,0a.31.31,0,0,0,0-.1l-1.88-4-1.89,4,0,.09,0,0h0a2.13,2.13,0,0,0-.15.75,2.09,2.09,0,0,0,4.17,0A2,2,0,0,0,52.51,37.58Z"/><path class="cls-2" d="M28.71,37,26.12,36a6.37,6.37,0,0,1,11.75-.06L35.29,37a3.57,3.57,0,0,0-6.58,0Z"/><path class="cls-2" d="M50.87,23a9.16,9.16,0,0,1-3.4-.68,7.89,7.89,0,0,1-5.07-6.15l2.79-.29a5.13,5.13,0,0,0,3.34,3.84,5.12,5.12,0,0,0,5.1-.42l1.81,2.14A7,7,0,0,1,50.87,23Z"/><path class="cls-2" d="M11.73,23.7a7,7,0,0,1-4.57-1.56L9,20a5.12,5.12,0,0,0,5.1.42,5.16,5.16,0,0,0,3.35-3.84l2.78.29A7.89,7.89,0,0,1,15.13,23,9.16,9.16,0,0,1,11.73,23.7Z"/></svg>