<svg id="Layer_2" data-name="Layer 2" xmlns="http://www.w3.org/2000/svg" viewBox="0 0 64 64"><defs><style>.cls-1{fill:#fff;}.cls-2{fill:#846d9b;}.cls-3{fill:#c96fa1;}</style></defs><title>wow</title><circle class="cls-1" cx="32" cy="32" r="29.7"/><ellipse class="cls-2" cx="32" cy="33.75" rx="4.7" ry="6.28"/><path class="cls-3" d="M23.17,19.6a4.5,4.5,0,0,0-5.28,1.67A4.5,4.5,0,0,0,10,25.39a4.19,4.19,0,0,0,.84,1.38h0l.06.07L11,27l6.85,6.73h0L24.74,27l.18-.17.07-.07h0a4.19,4.19,0,0,0,.84-1.38A4.5,4.5,0,0,0,23.17,19.6Z"/><path class="cls-3" d="M51.1,19.6a4.5,4.5,0,0,0-5.28,1.67,4.5,4.5,0,0,0-7.92,4.12,4.37,4.37,0,0,0,.84,1.38h0l.07.07L39,27l6.85,6.73h0L52.67,27l.18-.17.07-.07h0a4.37,4.37,0,0,0,.84-1.38A4.51,4.51,0,0,0,51.1,19.6Z"/></svg>